<svg width="26" height="20" viewBox="0 0 26 20" fill="none" xmlns="http://www.w3.org/2000/svg">
<path d="M24.2566 19.9582H1.64064C0.76375 19.9582 0.0253906 19.232 0.0253906 18.3184V1.73348C0.0252891 0.843277 0.740594 0.093689 1.64064 0.093689H24.2566C25.1335 0.093689 25.872 0.819874 25.872 1.73348V18.3184C25.872 19.232 25.1566 19.9582 24.2566 19.9582Z" fill="#E3E3E3"/>
<path opacity="0.1" d="M3.2561 19.9582L12.9256 12.0639L12.9948 11.6423L3.02535 4.35712L3.0022 19.6069L3.2561 19.9582Z" fill="#231F20"/>
<path d="M1.64062 19.9582C0.740573 19.9582 0.0252686 19.232 0.0252686 18.3184V1.70997C0.0252686 0.796467 0.740573 0.632446 1.64062 0.632446C2.54067 0.632446 3.25607 0.819869 3.25607 1.70997V19.9582H1.64062Z" fill="#D54B3D"/>
<path d="M1.64064 0.866673C2.79449 0.866673 3.02534 1.21812 3.02534 1.70997V19.724H1.64064C0.879125 19.724 0.256039 19.0915 0.256039 18.3184V1.70997C0.256039 1.19461 0.486789 0.866673 1.64064 0.866673ZM1.64064 0.632446C0.740594 0.632446 0.0253906 0.819869 0.0253906 1.70997V18.3185C0.0253906 19.2321 0.740695 19.9583 1.64074 19.9583H3.25609V1.70997C3.25609 0.796467 2.54069 0.632446 1.64064 0.632446Z" fill="#D72B27"/>
<path d="M24.2566 19.9582H22.6411V1.66317C22.6411 0.74956 23.3565 0.632446 24.2566 0.632446C25.1566 0.632446 25.872 0.74956 25.872 1.66317V18.3419C25.872 19.232 25.1566 19.9582 24.2566 19.9582Z" fill="#D54B3D"/>
<path d="M24.2566 0.866673C25.295 0.866673 25.6412 1.0775 25.6412 1.66317V18.3419C25.6412 19.1149 25.0181 19.7474 24.2566 19.7474H22.8719V1.66317C22.8719 1.0541 23.2181 0.866673 24.2566 0.866673ZM24.2566 0.632446C23.3565 0.632446 22.6411 0.74956 22.6411 1.66317V19.9817H24.2566C25.1566 19.9817 25.872 19.2554 25.872 18.3419V1.66317C25.872 0.74956 25.1566 0.632446 24.2566 0.632446Z" fill="#D72B27"/>
<path d="M17.3333 19.9583L0.1604 2.39124L1.0637 2.76412L13.0178 11.5018L25.872 1.93402V18.342C25.872 19.2321 25.1566 19.9583 24.2565 19.9583H17.3333Z" fill="url(#paint0_linear)"/>
<path d="M12.9255 12.0639L0.717522 3.06864C0.00211609 2.52988 -0.205579 1.49915 0.325186 0.772969C0.856155 0.046784 1.89453 -0.117133 2.63299 0.421629L12.9487 8.03482L23.3334 0.327815C24.0488 -0.210948 25.0642 -0.0469273 25.5949 0.70266C26.1257 1.42885 25.9642 2.45957 25.2257 2.99833L12.9254 12.0638L12.9255 12.0639Z" fill="#D54B3D"/>
<path d="M24.2565 0.234227C24.6949 0.234227 25.1103 0.445052 25.3873 0.819794C25.8257 1.45237 25.6873 2.31907 25.0873 2.78763L12.9255 11.7829L0.855987 2.88134C0.232901 2.41278 0.0713147 1.52258 0.50976 0.913608C0.763666 0.562165 1.20211 0.328041 1.66361 0.328041C1.96363 0.328041 2.26364 0.421649 2.49439 0.609072L12.787 8.19876L12.9255 8.29258L13.0639 8.19876L23.4257 0.491959C23.6796 0.328041 23.9565 0.234227 24.2565 0.234227ZM24.2565 0C23.9334 0 23.5872 0.0937113 23.3103 0.304536L12.9255 8.01134L2.60977 0.398247C2.33301 0.187423 1.98689 0.0937113 1.64066 0.0937113C1.13295 0.0937113 0.625237 0.327938 0.302166 0.773093C-0.205545 1.49918 0.00215058 2.5299 0.717557 3.06866L12.9256 12.0874L25.2027 2.99845C25.9181 2.45969 26.0796 1.45237 25.5719 0.702783C25.2489 0.234227 24.7642 0 24.2565 0Z" fill="#D72B27"/>
<defs>
<linearGradient id="paint0_linear" x1="0.161429" y1="10.9458" x2="25.8802" y2="10.9458" gradientUnits="userSpaceOnUse">
<stop stop-opacity="0.1"/>
<stop offset="1" stop-opacity="0.2"/>
</linearGradient>
</defs>
</svg>
