<svg width="9" height="8" viewBox="0 0 9 8" fill="none" xmlns="http://www.w3.org/2000/svg">
<path d="M0.647546 7.47746L8.71874 4.58769C8.80218 4.55801 8.87332 4.50848 8.92333 4.44529C8.97334 4.3821 9 4.30802 9 4.23227C9 4.15652 8.97334 4.08244 8.92333 4.01924C8.87332 3.95605 8.80218 3.90653 8.71874 3.87684L0.647546 0.987072C0.577658 0.96161 0.50128 0.951082 0.425303 0.956437C0.349326 0.961791 0.27614 0.98286 0.212348 1.01774C0.148556 1.05263 0.0961645 1.10023 0.0599002 1.15625C0.0236359 1.21227 0.00463967 1.27495 0.00462532 1.33863L0 3.11963C0 3.31279 0.171137 3.47892 0.402403 3.5021L6.93799 4.23227L0.402403 4.95857C0.171137 4.98562 0 5.15174 0 5.34491L0.00462532 7.1259C0.00462532 7.4002 0.342274 7.5895 0.647546 7.47746Z" fill="white"/>
</svg>
